{"title":"Vajram (2015) x264 AAC 700MB - Shammu@TT","uid":11734039,"size":733877355,"categoryP":"video","categoryS":"movies","magnet":"?xt=urn:btih:5ef46c1875ce00fecf4a1b2974627fb4eba875b6&amp;dn=Vajram+%282015%29+x264+AAC+700MB+-+Shammu%40TT&amp;tr=udp%3A%2F%2Ftracker.openbittorrent.com%3A80&amp;tr=udp%3A%2F%2Fopen.demonii.com%3A1337&amp;tr=udp%3A%2F%2Ftracker.coppersurfer.tk%3A6969&amp;tr=udp%3A%2F%2Fexodus.desync.com%3A6969","seeders":0,"leechers":1,"uploader":"TeamXDN","files":1,"time":1425489852,"description":"Vajram (2015) x264 AAC 700MB - Shammu@TT\n\nFormat                                   : MPEG-4\nFormat profile                           : Base Media\nCodec ID                                 : isom\nFile size                                : 700 MiB\nDuration                                 : 2h 6mn\nOverall bit rate mode                    : Variable\nOverall bit rate                         : 775 Kbps\nEncoded date                             : UTC 2015-03-04 15:47:25\nTagged date                              : UTC 2015-03-04 15:47:25\n\nVideo\nID                                       : 1\nFormat                                   : AVC\nFormat/Info                              : Advanced Video Codec\nFormat profile                           : High &lt;a class=&quot;__cf_email__&quot; href=&quot;/cdn-cgi/l/email-protection&quot; data-cfemail=&quot;c5f4f58589f7ebf4&quot;&gt;[email&amp;#160;protected]&lt;/a&gt;&lt;script cf-hash='f9e31' type=&quot;text/javascript&quot;&gt;\n/* &lt;![CDATA[ */!function(){try{var t=&quot;currentScript&quot;in document?document.currentScript:function(){for(var t=document.getElementsByTagName(&quot;script&quot;),e=t.length;e--;)if(t[e].getAttribute(&quot;cf-hash&quot;))return t[e]}();if(t&amp;&amp;t.previousSibling){var e,r,n,i,c=t.previousSibling,a=c.getAttribute(&quot;data-cfemail&quot;);if(a){for(e=&quot;&quot;,r=parseInt(a.substr(0,2),16),n=2;a.length-n;n+=2)i=parseInt(a.substr(n,2),16)^r,e+=String.fromCharCode(i);e=document.createTextNode(e),c.parentNode.replaceChild(e,c)}}}catch(u){}}();/* ]]&gt; */&lt;/script&gt;\nFormat settings, CABAC                   : Yes\nFormat settings, ReFrames                : 4 frames\nCodec ID                                 : avc1\nCodec ID/Info                            : Advanced Video Coding\nDuration                                 : 2h 6mn\nBit rate                                 : 712 Kbps\nMaximum bit rate                         : 2 809 Kbps\nWidth                                    : 608 pixels\nHeight                                   : 256 pixels\nDisplay aspect ratio                     : 2.40:1\nFrame rate mode                          : Constant\nFrame rate                               : 23.976 fps\nColor space                              : YUV\nChroma subsampling                       : 4:2:0\nBit depth                                : 10 bits\nScan type                                : Progressive\nBits/(Pixel*Frame)                       : 0.191\nStream size                              : 643 MiB (92%)\nWriting library                          : x264 core 142 r2431 ac76440\nEncoded date                             : UTC 2015-03-03 19:03:42\nTagged date                              : UTC 2015-03-04 15:48:25\n\nAudio\nID                                       : 2\nFormat                                   : AAC\nFormat/Info                              : Advanced Audio Codec\nFormat profile                           : HE-AAC / LC\nCodec ID                                 : 40\nDuration                                 : 2h 6mn\nBit rate mode                            : Variable\nBit rate                                 : 60.0 Kbps\nMaximum bit rate                         : 68.6 Kbps\nChannel(s)                               : 2 channels\nChannel positions                        : Front: L R\nSampling rate                            : 24.0 KHz / 12.0 KHz\nCompression mode                         : Lossy\nStream size                              : 54.2 MiB (8%)\nEncoded date                             : UTC 2015-03-03 19:05:28\nTagged date                              : UTC 2015-03-04 15:48:25","torrent":{"xt":"urn:btih:5ef46c1875ce00fecf4a1b2974627fb4eba875b6","amp;dn":"Vajram+%282015%29+x264+AAC+700MB+-+Shammu%40TT","amp;tr":["udp%3A%2F%2Ftracker.openbittorrent.com%3A80","udp%3A%2F%2Fopen.demonii.com%3A1337","udp%3A%2F%2Ftracker.coppersurfer.tk%3A6969","udp%3A%2F%2Fexodus.desync.com%3A6969"],"infoHash":"5ef46c1875ce00fecf4a1b2974627fb4eba875b6","infoHashBuffer":{"type":"Buffer","data":[94,244,108,24,117,206,0,254,207,74,27,41,116,98,127,180,235,168,117,182]},"announce":[],"urlList":[]}}